HIERARCHY
ROOT hip
{
  OFFSET 0 90.174 2.4664
  CHANNELS 6 Xposition Yposition Zposition Zrotation Xrotation Yrotation
  JOINT abdomen
  {
    OFFSET 0 -1.186 -1.5018
    CHANNELS 6 Xposition Yposition Zposition Zrotation Xrotation Yrotation
    JOINT abdomen2
    {
      OFFSET 0 9.964 0.2134
      CHANNELS 6 Xposition Yposition Zposition Zrotation Xrotation Yrotation
      JOINT chest
      {
        OFFSET 0 13.134 -3.2573
        CHANNELS 6 Xposition Yposition Zposition Zrotation Xrotation Yrotation
        JOINT neck
        {
          OFFSET 0 20.686 -1.6905
          CHANNELS 6 Xposition Yposition Zposition Zrotation Xrotation Yrotation
          JOINT head
          {
            OFFSET 0 7.238 -0.1237
            CHANNELS 6 Xposition Yposition Zposition Zrotation Xrotation Yrotation
            End Site
            {
              OFFSET 0 0 0
            }
          }
        }
        JOINT lCollar
        {
          OFFSET 1.7069 20.075 5.0056
          CHANNELS 6 Xposition Yposition Zposition Zrotation Xrotation Yrotation
          JOINT lShldr
          {
            OFFSET 13.6458 -0.047 -4.849
            CHANNELS 6 Xposition Yposition Zposition Zrotation Xrotation Yrotation
            JOINT lForeArm
            {
              OFFSET 28.3255 -0.9759 2.2888
              CHANNELS 6 Xposition Yposition Zposition Zrotation Xrotation Yrotation
              JOINT lHand
              {
                OFFSET 22.1583 -0.53 10.8316
                CHANNELS 6 Xposition Yposition Zposition Zrotation Xrotation Yrotation
                JOINT lThumb1
                {
                  OFFSET 0.786 0.112 2.5817
                  CHANNELS 6 Xposition Yposition Zposition Zrotation Xrotation Yrotation
                  JOINT lThumb2
                  {
                    OFFSET 0.3601 -0.878 4.2331
                    CHANNELS 6 Xposition Yposition Zposition Zrotation Xrotation Yrotation
                    JOINT lThumb2_End
                    {
                      OFFSET 1.8127 -1.216 2.2227
                      CHANNELS 6 Xposition Yposition Zposition Zrotation Xrotation Yrotation
                      End Site
                      {
                        OFFSET 0.0181 -0.0122 0.0222
                      }
                    }
                  }
                }
                JOINT lCarpal1
                {
                  OFFSET 0.9571 1.114 1.7695
                  CHANNELS 6 Xposition Yposition Zposition Zrotation Xrotation Yrotation
                  JOINT lIndex1
                  {
                    OFFSET 4.1246 0.487 4.1451
                    CHANNELS 6 Xposition Yposition Zposition Zrotation Xrotation Yrotation
                    JOINT lIndex2
                    {
                      OFFSET 3.4052 -1.454 2.7682
                      CHANNELS 6 Xposition Yposition Zposition Zrotation Xrotation Yrotation
                      JOINT lIndex2_End
                      {
                        OFFSET 1.4531 -1.795 1.2713
                        CHANNELS 6 Xposition Yposition Zposition Zrotation Xrotation Yrotation
                        End Site
                        {
                          OFFSET 0.0145 -0.0179 0.0127
                        }
                      }
                    }
                  }
                  JOINT lMid1
                  {
                    OFFSET 5.6954 0.21 2.1184
                    CHANNELS 6 Xposition Yposition Zposition Zrotation Xrotation Yrotation
                    JOINT lMid2
                    {
                      OFFSET 3.9766 -1.54 2.3863
                      CHANNELS 6 Xposition Yposition Zposition Zrotation Xrotation Yrotation
                      JOINT lMid2_End
                      {
                        OFFSET 1.4042 -1.926 1.125
                        CHANNELS 6 Xposition Yposition Zposition Zrotation Xrotation Yrotation
                        End Site
                        {
                          OFFSET 0.014 -0.0193 0.0113
                        }
                      }
                    }
                  }
                }
                JOINT lCarpal2
                {
                  OFFSET 2.0956 0.66 -0.3894
                  CHANNELS 6 Xposition Yposition Zposition Zrotation Xrotation Yrotation
                  JOINT lRing1
                  {
                    OFFSET 5.0395 -0.09 2.4971
                    CHANNELS 6 Xposition Yposition Zposition Zrotation Xrotation Yrotation
                    JOINT lRing2
                    {
                      OFFSET 3.7921 -1.552 1.4806
                      CHANNELS 6 Xposition Yposition Zposition Zrotation Xrotation Yrotation
                      JOINT lRing2_End
                      {
                        OFFSET 1.4655 -1.808 0.9609
                        CHANNELS 6 Xposition Yposition Zposition Zrotation Xrotation Yrotation
                        End Site
                        {
                          OFFSET 0.0147 -0.0181 0.0096
                        }
                      }
                    }
                  }
                  JOINT lPinky1
                  {
                    OFFSET 4.9141 -1.269 0.3591
                    CHANNELS 6 Xposition Yposition Zposition Zrotation Xrotation Yrotation
                    JOINT lPinky2
                    {
                      OFFSET 3.1477 -1.685 0.8462
                      CHANNELS 6 Xposition Yposition Zposition Zrotation Xrotation Yrotation
                      JOINT lPinky2_End
                      {
                        OFFSET 0.8055 -1.585 0.7955
                        CHANNELS 6 Xposition Yposition Zposition Zrotation Xrotation Yrotation
                        End Site
                        {
                          OFFSET 0.0081 -0.0158 0.008
                        }
                      }
                    }
                  }
                }
              }
            }
          }
        }
        JOINT rCollar
        {
          OFFSET -1.7069 20.075 5.0056
          CHANNELS 6 Xposition Yposition Zposition Zrotation Xrotation Yrotation
          JOINT rShldr
          {
            OFFSET -13.6458 -0.047 -4.849
            CHANNELS 6 Xposition Yposition Zposition Zrotation Xrotation Yrotation
            JOINT rForeArm
            {
              OFFSET -28.3255 -0.9759 2.2888
              CHANNELS 6 Xposition Yposition Zposition Zrotation Xrotation Yrotation
              JOINT rHand
              {
                OFFSET -22.1583 -0.53 10.8316
                CHANNELS 6 Xposition Yposition Zposition Zrotation Xrotation Yrotation
                JOINT rThumb1
                {
                  OFFSET -0.786 0.112 2.5817
                  CHANNELS 6 Xposition Yposition Zposition Zrotation Xrotation Yrotation
                  JOINT rThumb2
                  {
                    OFFSET -0.3601 -0.878 4.2331
                    CHANNELS 6 Xposition Yposition Zposition Zrotation Xrotation Yrotation
                    JOINT rThumb2_End
                    {
                      OFFSET -1.8127 -1.216 2.2227
                      CHANNELS 6 Xposition Yposition Zposition Zrotation Xrotation Yrotation
                      End Site
                      {
                        OFFSET -0.0181 -0.0122 0.0222
                      }
                    }
                  }
                }
                JOINT rCarpal1
                {
                  OFFSET -0.9571 1.114 1.7695
                  CHANNELS 6 Xposition Yposition Zposition Zrotation Xrotation Yrotation
                  JOINT rIndex1
                  {
                    OFFSET -4.1246 0.487 4.1451
                    CHANNELS 6 Xposition Yposition Zposition Zrotation Xrotation Yrotation
                    JOINT rIndex2
                    {
                      OFFSET -3.4052 -1.454 2.7682
                      CHANNELS 6 Xposition Yposition Zposition Zrotation Xrotation Yrotation
                      JOINT rIndex2_End
                      {
                        OFFSET -1.4531 -1.795 1.2713
                        CHANNELS 6 Xposition Yposition Zposition Zrotation Xrotation Yrotation
                        End Site
                        {
                          OFFSET -0.0145 -0.018 0.0127
                        }
                      }
                    }
                  }
                  JOINT rMid1
                  {
                    OFFSET -5.6954 0.21 2.1184
                    CHANNELS 6 Xposition Yposition Zposition Zrotation Xrotation Yrotation
                    JOINT rMid2
                    {
                      OFFSET -3.9766 -1.54 2.3863
                      CHANNELS 6 Xposition Yposition Zposition Zrotation Xrotation Yrotation
                      JOINT rMid2_End
                      {
                        OFFSET -1.4042 -1.926 1.125
                        CHANNELS 6 Xposition Yposition Zposition Zrotation Xrotation Yrotation
                        End Site
                        {
                          OFFSET -0.014 -0.0193 0.0113
                        }
                      }
                    }
                  }
                }
                JOINT rCarpal2
                {
                  OFFSET -2.0956 0.66 -0.3894
                  CHANNELS 6 Xposition Yposition Zposition Zrotation Xrotation Yrotation
                  JOINT rRing1
                  {
                    OFFSET -5.0395 -0.09 2.4971
                    CHANNELS 6 Xposition Yposition Zposition Zrotation Xrotation Yrotation
                    JOINT rRing2
                    {
                      OFFSET -3.7921 -1.552 1.4806
                      CHANNELS 6 Xposition Yposition Zposition Zrotation Xrotation Yrotation
                      JOINT rRing2_End
                      {
                        OFFSET -1.4655 -1.808 0.9609
                        CHANNELS 6 Xposition Yposition Zposition Zrotation Xrotation Yrotation
                        End Site
                        {
                          OFFSET -0.0147 -0.0181 0.0096
                        }
                      }
                    }
                  }
                  JOINT rPinky1
                  {
                    OFFSET -4.9141 -1.269 0.3592
                    CHANNELS 6 Xposition Yposition Zposition Zrotation Xrotation Yrotation
                    JOINT rPinky2
                    {
                      OFFSET -3.1477 -1.685 0.8462
                      CHANNELS 6 Xposition Yposition Zposition Zrotation Xrotation Yrotation
                      JOINT rPinky2_End
                      {
                        OFFSET -0.8055 -1.585 0.7955
                        CHANNELS 6 Xposition Yposition Zposition Zrotation Xrotation Yrotation
                        End Site
                        {
                          OFFSET -0.0081 -0.0158 0.008
                        }
                      }
                    }
                  }
                }
              }
            }
          }
        }
      }
    }
  }
  JOINT lThigh
  {
    OFFSET 8.367 -8.2066 0.5982
    CHANNELS 6 Xposition Yposition Zposition Zrotation Xrotation Yrotation
    JOINT lShin
    {
      OFFSET 2.1923 -43.463 -0.4932
      CHANNELS 6 Xposition Yposition Zposition Zrotation Xrotation Yrotation
      JOINT lFoot
      {
        OFFSET 0.7333 -45.8593 -2.6451
        CHANNELS 6 Xposition Yposition Zposition Zrotation Xrotation Yrotation
        End Site
        {
          OFFSET 2.6618 -4.2699 12.3931
        }
      }
    }
  }
  JOINT rThigh
  {
    OFFSET -8.367 -8.2066 0.5982
    CHANNELS 6 Xposition Yposition Zposition Zrotation Xrotation Yrotation
    JOINT rShin
    {
      OFFSET -2.1923 -43.463 -0.4931
      CHANNELS 6 Xposition Yposition Zposition Zrotation Xrotation Yrotation
      JOINT rFoot
      {
        OFFSET -0.7333 -45.8593 -2.6451
        CHANNELS 6 Xposition Yposition Zposition Zrotation Xrotation Yrotation
        End Site
        {
          OFFSET -2.6618 -4.2699 12.3931
        }
      }
    }
  }
}
MOTION
Frames:	4
Frame Time:	0.0333333
0 90.174 2.4664 0 0 -0 0 -1.186 -1.5018 0 0 -0 0 9.964 0.2134 0 0 -0 0 13.134 -3.2573 0 0 -0 0 20.686 -1.6905 0 0 -0 0 7.238 -0.1237 0 0 -0 1.7069 20.075 5.0056 0 0 -0 13.6458 -0.047 -4.849 1.66051 0.0835086 5.75766 28.3255 -0.9759 2.2888 -0.0175111 0.895433 15.7816 22.1583 -0.53 10.8316 7.95139e-016 -1.98785e-016 -0 0.786 0.112 2.5817 5.46658e-016 -3.97569e-016 -0 0.3601 -0.878 4.2331 5.96354e-016 0 -0 1.8127 -1.216 2.2227 3.97569e-016 1.98785e-016 9.54166e-015 0.9571 1.114 1.7695 1.49089e-016 -3.97569e-016 -0 4.1246 0.487 4.1451 6.4605e-016 0 3.18055e-015 3.4052 -1.454 2.7682 5.96354e-016 0 3.18055e-015 1.4531 -1.795 1.2713 8.94531e-016 -1.98785e-016 6.36111e-015 5.6954 0.21 2.1184 6.4605e-016 0 3.18055e-015 3.9766 -1.54 2.3863 5.96354e-016 0 3.18055e-015 1.4042 -1.926 1.125 8.94531e-016 -1.98785e-016 6.36111e-015 2.0956 0.66 -0.3894 1.49089e-016 -3.97569e-016 -0 5.0395 -0.09 2.4971 6.4605e-016 0 3.18055e-015 3.7921 -1.552 1.4806 5.96354e-016 0 3.18055e-015 1.4655 -1.808 0.9609 8.94531e-016 -1.98785e-016 6.36111e-015 4.9141 -1.269 0.3591 6.4605e-016 0 3.18055e-015 3.1477 -1.685 0.8462 5.96354e-016 0 3.18055e-015 0.8055 -1.585 0.7955 8.94531e-016 -1.98785e-016 6.36111e-015 -1.7069 20.075 5.0056 0 0 -0 -13.6458 -0.047 -4.849 -1.4496 0.0636048 -5.0245 -28.3255 -0.9759 2.2888 -1.74811 1.20616 -16.8394 -22.1583 -0.53 10.8316 -1.19271e-015 1.98785e-016 -3.18055e-015 -0.786 0.112 2.5817 -3.97569e-016 1.98785e-016 -3.18055e-015 -0.3601 -0.878 4.2331 -2.98177e-016 1.98785e-016 -3.18055e-015 -1.8127 -1.216 2.2227 -2.98177e-016 3.97569e-016 -0 -0.9571 1.114 1.7695 4.96962e-016 0 -6.36111e-015 -4.1246 0.487 4.1451 -9.93923e-017 3.97569e-016 -0 -3.4052 -1.454 2.7682 -8.94531e-016 5.96354e-016 -0 -1.4531 -1.795 1.2713 -3.97569e-016 3.97569e-016 -0 -5.6954 0.21 2.1184 -9.93923e-017 3.97569e-016 -0 -3.9766 -1.54 2.3863 -8.94531e-016 5.96354e-016 -0 -1.4042 -1.926 1.125 -3.97569e-016 3.97569e-016 -0 -2.0956 0.66 -0.3894 4.96962e-016 0 -6.36111e-015 -5.0395 -0.09 2.4971 -9.93923e-017 3.97569e-016 -0 -3.7921 -1.552 1.4806 -8.94531e-016 5.96354e-016 -0 -1.4655 -1.808 0.9609 -3.97569e-016 3.97569e-016 -0 -4.9141 -1.269 0.3592 -9.93923e-017 3.97569e-016 -0 -3.1477 -1.685 0.8462 -8.94531e-016 5.96354e-016 -0 -0.8055 -1.585 0.7955 -3.97569e-016 3.97569e-016 -0 8.367 -8.2066 0.5982 -4.66115 -1.03232 0.120763 2.1923 -43.463 -0.4932 0.00990601 1.55097 0.177175 0.7333 -45.8593 -2.6451 4.65196 -0.54114 -0.255042 -8.367 -8.2066 0.5982 4.66115 -1.03222 -0.120763 -2.1923 -43.463 -0.4931 -0.00990459 1.5509 -0.177176 -0.7333 -45.8593 -2.6451 -4.65196 -0.541171 0.255041 
-0.28233 86.5812 -62.3937 0 39.9976 -0 0 -1.186 -1.5018 -0.713776 12.4237 -0.024395 0 9.964 0.2134 -1.47616 24.8467 0.118575 2.22045e-016 13.134 -3.2573 -1.47616 24.8467 0.118575 -2.22045e-016 20.686 -1.6905 1.19035e-005 -40.0013 7.4007e-006 0 7.238 -0.1237 6.48048e-007 -1.15932 2.97071e-007 1.7069 20.075 5.0056 -46.0244 -5.43172 52.7174 13.6458 -0.047 -4.849 -44.6874 37.4141 35.7929 28.3255 -0.9759 2.2888 2.81359 -0.0480808 12.4986 22.1583 -0.53 10.8316 -5.27719 2.51435 13.1008 0.786 0.112 2.5817 1.77305e-007 -4.50473e-007 -1.81951e-006 0.3601 -0.878 4.2331 -3.18055e-015 1.59028e-015 -0 1.8127 -1.216 2.2227 -9.14653e-006 3.59518e-006 -1.16891e-006 0.9571 1.114 1.7695 -3.18055e-015 -3.18055e-015 -0 4.1246 0.487 4.1451 1.77305e-007 -4.50473e-007 -1.81951e-006 3.4052 -1.454 2.7682 -3.97569e-015 1.59028e-015 -0 1.4531 -1.795 1.2713 -9.14653e-006 3.59518e-006 -1.16891e-006 5.6954 0.21 2.1184 1.77305e-007 -4.50473e-007 -1.81951e-006 3.9766 -1.54 2.3863 -3.97569e-015 1.59028e-015 -0 1.4042 -1.926 1.125 -9.14653e-006 3.59518e-006 -1.16891e-006 2.0956 0.66 -0.3894 -3.18055e-015 -3.18055e-015 -0 5.0395 -0.09 2.4971 1.77305e-007 -4.50473e-007 -1.81951e-006 3.7921 -1.552 1.4806 -3.97569e-015 1.59028e-015 -0 1.4655 -1.808 0.9609 -9.14653e-006 3.59518e-006 -1.16891e-006 4.9141 -1.269 0.3591 1.77305e-007 -4.50473e-007 -1.81951e-006 3.1477 -1.685 0.8462 -3.97569e-015 1.59028e-015 -0 0.8055 -1.585 0.7955 -9.14653e-006 3.59518e-006 -1.16891e-006 -1.7069 20.075 5.0056 45.1712 -5.23046 -50.5803 -13.6458 -0.047 -4.849 43.7565 37.3755 -34.4392 -28.3255 -0.9759 2.2888 -1.46514 0.446436 -5.2692 -22.1583 -0.53 10.8316 6.65145 2.08432 13.1376 -0.786 0.112 2.5817 3.18055e-015 3.18055e-015 -0 -0.3601 -0.878 4.2331 2.90788e-007 1.01578e-006 -1.33228e-006 -1.8127 -1.216 2.2227 7.95139e-016 2.38542e-014 3.18055e-015 -0.9571 1.114 1.7695 2.78299e-015 3.18055e-015 3.18055e-015 -4.1246 0.487 4.1451 -5.96354e-015 3.18055e-015 1.27222e-014 -3.4052 -1.454 2.7682 2.90788e-007 1.01578e-006 -1.33228e-006 -1.4531 -1.795 1.2713 5.1684e-015 2.54444e-014 3.18055e-015 -5.6954 0.21 2.1184 -5.96354e-015 3.18055e-015 1.27222e-014 -3.9766 -1.54 2.3863 2.90788e-007 1.01578e-006 -1.33228e-006 -1.4042 -1.926 1.125 5.1684e-015 2.54444e-014 3.18055e-015 -2.0956 0.66 -0.3894 2.78299e-015 3.18055e-015 3.18055e-015 -5.0395 -0.09 2.4971 -5.96354e-015 3.18055e-015 1.27222e-014 -3.7921 -1.552 1.4806 2.90788e-007 1.01578e-006 -1.33228e-006 -1.4655 -1.808 0.9609 5.1684e-015 2.54444e-014 3.18055e-015 -4.9141 -1.269 0.3592 -5.96354e-015 3.18055e-015 1.27222e-014 -3.1477 -1.685 0.8462 2.90788e-007 1.01578e-006 -1.33228e-006 -0.8055 -1.585 0.7955 5.1684e-015 2.54444e-014 3.18055e-015 8.367 -8.2066 0.5982 12.4723 -39.733 -1.96666 2.1923 -43.463 -0.4932 -0.887947 10.6197 0.39192 0.7333 -45.8593 -2.6451 9.41728 -2.32515 8.85452 -8.367 -8.2066 0.5982 -5.04765 -43.187 1.77274 -2.1923 -43.463 -0.4931 -0.0762608 10.9965 -0.0738172 -0.7333 -45.8593 -2.6451 -6.22135 -5.10498 -3.85398 
-0.278055 86.5814 -62.394 0 39.9976 -0 0 -1.186 -1.5018 -0.712796 12.4903 -0.0267996 1.11022e-016 9.964 0.2134 -1.47415 24.9798 0.114401 -4.44089e-016 13.134 -3.2573 -1.47415 24.9798 0.1144 0 20.686 -1.6905 7.54276e-006 -40.6117 6.4954e-006 1.11022e-016 7.238 -0.1237 9.74357e-007 -2.31181 2.47328e-007 1.7069 20.075 5.0056 -45.9422 -5.55285 52.4048 13.6458 -0.047 -4.849 -44.8626 37.3332 35.8624 28.3255 -0.9759 2.2888 2.8136 -0.0480804 12.4986 22.1583 -0.53 10.8316 -5.27716 2.51435 13.1008 0.786 0.112 2.5817 -1.59028e-015 1.59028e-015 -0 0.3601 -0.878 4.2331 -2.38542e-015 -1.59028e-015 -0 1.8127 -1.216 2.2227 -3.18055e-015 3.18055e-015 -0 0.9571 1.114 1.7695 -1.59028e-015 3.18055e-015 3.18055e-015 4.1246 0.487 4.1451 -1.59028e-015 -3.18055e-015 3.18055e-015 3.4052 -1.454 2.7682 -1.59028e-015 -3.18055e-015 -3.18055e-015 1.4531 -1.795 1.2713 -1.59028e-015 3.18055e-015 -0 5.6954 0.21 2.1184 -1.59028e-015 -3.18055e-015 3.18055e-015 3.9766 -1.54 2.3863 -1.59028e-015 -3.18055e-015 -3.18055e-015 1.4042 -1.926 1.125 -1.59028e-015 3.18055e-015 -0 2.0956 0.66 -0.3894 -1.59028e-015 3.18055e-015 3.18055e-015 5.0395 -0.09 2.4971 -1.59028e-015 -3.18055e-015 3.18055e-015 3.7921 -1.552 1.4806 -1.59028e-015 -3.18055e-015 -3.18055e-015 1.4655 -1.808 0.9609 -1.59028e-015 3.18055e-015 -0 4.9141 -1.269 0.3591 -1.59028e-015 -3.18055e-015 3.18055e-015 3.1477 -1.685 0.8462 -1.59028e-015 -3.18055e-015 -3.18055e-015 0.8055 -1.585 0.7955 -1.59028e-015 3.18055e-015 -0 -1.7069 20.075 5.0056 45.0894 -5.3605 -50.295 -13.6458 -0.047 -4.849 43.7565 37.3755 -34.4392 -28.3255 -0.9759 2.2888 -1.46514 0.446438 -5.26919 -22.1583 -0.53 10.8316 6.65145 2.08432 13.1376 -0.786 0.112 2.5817 7.95139e-016 -3.18055e-015 -0 -0.3601 -0.878 4.2331 3.57812e-015 0 -0 -1.8127 -1.216 2.2227 1.98785e-015 -1.59028e-015 3.18055e-015 -0.9571 1.114 1.7695 7.95139e-016 -1.59028e-015 -0 -4.1246 0.487 4.1451 -3.97569e-016 0 -0 -3.4052 -1.454 2.7682 -7.95139e-016 1.59028e-015 3.18055e-015 -1.4531 -1.795 1.2713 -3.97569e-016 0 3.18055e-015 -5.6954 0.21 2.1184 -3.97569e-016 0 -0 -3.9766 -1.54 2.3863 -7.95139e-016 1.59028e-015 3.18055e-015 -1.4042 -1.926 1.125 -3.97569e-016 0 3.18055e-015 -2.0956 0.66 -0.3894 7.95139e-016 -1.59028e-015 -0 -5.0395 -0.09 2.4971 -3.97569e-016 0 -0 -3.7921 -1.552 1.4806 -7.95139e-016 1.59028e-015 3.18055e-015 -1.4655 -1.808 0.9609 -3.97569e-016 0 3.18055e-015 -4.9141 -1.269 0.3592 -3.97569e-016 0 -0 -3.1477 -1.685 0.8462 -7.95139e-016 1.59028e-015 3.18055e-015 -0.8055 -1.585 0.7955 -3.97569e-016 0 3.18055e-015 8.367 -8.2066 0.5982 12.6795 -39.6155 -1.69849 2.1923 -43.463 -0.4932 -1.18638 10.3692 0.454282 0.7333 -45.8593 -2.6451 9.57186 -2.21912 8.66277 -8.367 -8.2066 0.5982 -5.25917 -43.2132 1.05151 -2.1923 -43.463 -0.4931 -0.076092 10.9981 -0.0709985 -0.7333 -45.8593 -2.6451 -6.27629 -5.1648 -3.25123 
-0.273777 86.5816 -62.3943 0 39.9976 -0 0 -1.186 -1.5018 -0.711781 12.5569 -0.0292036 1.11022e-016 9.964 0.2134 -1.47206 25.113 0.110216 -4.44089e-016 13.134 -3.2573 -1.47206 25.1131 0.110215 -4.44089e-016 20.686 -1.6905 2.27244e-005 -41.2226 1.48578e-005 -1.11022e-016 7.238 -0.1237 3.63889e-007 -3.46617 -1.64405e-007 1.7069 20.075 5.0056 -45.8607 -5.67443 52.0923 13.6458 -0.047 -4.849 -45.0375 37.2522 35.9315 28.3255 -0.9759 2.2888 2.8136 -0.048077 12.4986 22.1583 -0.53 10.8316 -5.27718 2.51435 13.1008 0.786 0.112 2.5817 1.75919e-007 -4.50102e-007 -1.8198e-006 0.3601 -0.878 4.2331 7.95139e-016 -6.36111e-015 -3.18055e-015 1.8127 -1.216 2.2227 1.75919e-007 -4.50102e-007 -1.8198e-006 0.9571 1.114 1.7695 1.59028e-015 1.59028e-015 3.18055e-015 4.1246 0.487 4.1451 1.75919e-007 -4.50102e-007 -1.8198e-006 3.4052 -1.454 2.7682 1.59028e-015 -3.18055e-015 -3.18055e-015 1.4531 -1.795 1.2713 1.75919e-007 -4.50102e-007 -1.8198e-006 5.6954 0.21 2.1184 1.75919e-007 -4.50102e-007 -1.8198e-006 3.9766 -1.54 2.3863 1.59028e-015 -3.18055e-015 -3.18055e-015 1.4042 -1.926 1.125 1.75919e-007 -4.50102e-007 -1.8198e-006 2.0956 0.66 -0.3894 1.59028e-015 1.59028e-015 3.18055e-015 5.0395 -0.09 2.4971 1.75919e-007 -4.50102e-007 -1.8198e-006 3.7921 -1.552 1.4806 1.59028e-015 -3.18055e-015 -3.18055e-015 1.4655 -1.808 0.9609 1.75919e-007 -4.50102e-007 -1.8198e-006 4.9141 -1.269 0.3591 1.75919e-007 -4.50102e-007 -1.8198e-006 3.1477 -1.685 0.8462 1.59028e-015 -3.18055e-015 -3.18055e-015 0.8055 -1.585 0.7955 1.75919e-007 -4.50102e-007 -1.8198e-006 -1.7069 20.075 5.0056 45.0082 -5.49094 -50.0098 -13.6458 -0.047 -4.849 43.7565 37.3754 -34.4392 -28.3255 -0.9759 2.2888 -1.46516 0.446432 -5.2692 -22.1583 -0.53 10.8316 6.65143 2.08432 13.1376 -0.786 0.112 2.5817 -2.88641e-007 -1.01921e-006 1.33009e-006 -0.3601 -0.878 4.2331 -2.88641e-007 -1.01921e-006 1.33009e-006 -1.8127 -1.216 2.2227 5.16399e-006 -1.95565e-006 1.3535e-007 -0.9571 1.114 1.7695 1.98785e-015 -1.59028e-015 -3.18055e-015 -4.1246 0.487 4.1451 -2.88641e-007 -1.01921e-006 1.33009e-006 -3.4052 -1.454 2.7682 -2.88641e-007 -1.01921e-006 1.33009e-006 -1.4531 -1.795 1.2713 5.16399e-006 -1.95565e-006 1.3535e-007 -5.6954 0.21 2.1184 -2.88641e-007 -1.01921e-006 1.33009e-006 -3.9766 -1.54 2.3863 -2.88641e-007 -1.01921e-006 1.33009e-006 -1.4042 -1.926 1.125 5.16399e-006 -1.95565e-006 1.3535e-007 -2.0956 0.66 -0.3894 1.98785e-015 -1.59028e-015 -3.18055e-015 -5.0395 -0.09 2.4971 -2.88641e-007 -1.01921e-006 1.33009e-006 -3.7921 -1.552 1.4806 -2.88641e-007 -1.01921e-006 1.33009e-006 -1.4655 -1.808 0.9609 5.16399e-006 -1.95565e-006 1.3535e-007 -4.9141 -1.269 0.3592 -2.88641e-007 -1.01921e-006 1.33009e-006 -3.1477 -1.685 0.8462 -2.88641e-007 -1.01921e-006 1.33009e-006 -0.8055 -1.585 0.7955 5.16399e-006 -1.95565e-006 1.3535e-007 8.367 -8.2066 0.5982 12.8853 -39.4959 -1.43161 2.1923 -43.463 -0.4932 -1.48432 10.1158 0.515216 0.7333 -45.8593 -2.6451 9.72669 -2.11245 8.47066 -8.367 -8.2066 0.5982 -5.47135 -43.2377 0.329525 -2.1923 -43.463 -0.4931 -0.075918 11 -0.0681579 -0.7333 -45.8593 -2.6451 -6.33063 -5.22535 -2.64824 
